<svg width="679" height="964" viewBox="0 0 679 964" fill="none" xmlns="http://www.w3.org/2000/svg">
<path d="M606.812 321.25C636.773 298.779 658.904 267.452 670.071 231.704C681.238 195.957 680.874 157.602 669.031 122.073C657.188 86.5441 634.466 55.6419 604.084 33.744C573.703 11.846 537.201 0.0625 499.75 0.0625H178.562C141.112 0.0625 104.61 11.846 74.2282 33.744C43.8465 55.6419 21.1248 86.5441 9.28183 122.073C-2.56119 157.602 -2.92516 195.957 8.24149 231.704C19.4081 267.452 41.5393 298.779 71.5 321.25C48.8153 338.25 30.5074 360.411 18.093 385.896C5.6785 411.381 -0.485343 439.458 0.112015 467.8C0.709372 496.141 8.05073 523.933 21.528 548.872C35.0053 573.812 54.2306 595.181 77.6115 611.211C51.017 631.43 30.0234 658.103 16.6186 688.704C3.21373 719.305 -2.15873 752.82 1.00989 786.078C4.17851 819.335 15.7833 851.233 34.7256 878.752C53.6678 906.271 79.3205 928.499 109.255 943.333C139.189 958.167 172.414 965.114 205.784 963.518C239.154 961.922 271.564 951.835 299.946 934.212C328.327 916.589 351.741 892.014 367.971 862.813C384.2 833.612 392.707 800.752 392.688 767.344V606.75C411.434 620.81 432.766 631.039 455.465 636.855C478.165 642.67 501.788 643.958 524.985 640.644C548.182 637.33 570.5 629.48 590.663 617.541C610.826 605.602 628.44 589.809 642.5 571.062C656.56 552.316 666.789 530.984 672.605 508.285C678.42 485.585 679.708 461.962 676.394 438.765C673.08 415.568 665.23 393.251 653.291 373.087C641.352 352.924 625.559 335.31 606.812 321.25ZM606.812 178.5C606.812 206.895 595.533 234.127 575.455 254.205C555.377 274.283 528.145 285.562 499.75 285.562H392.688V71.4375H499.75C528.145 71.4375 555.377 82.7173 575.455 102.795C595.533 122.873 606.812 150.105 606.812 178.5ZM71.5 178.5C71.5 150.105 82.7797 122.873 102.858 102.795C122.936 82.7173 150.168 71.4375 178.562 71.4375H321.312V285.562H178.562C150.168 285.562 122.936 274.283 102.858 254.205C82.7797 234.127 71.5 206.895 71.5 178.5ZM178.562 571.062C150.168 571.062 122.936 559.783 102.858 539.705C82.7797 519.627 71.5 492.395 71.5 464C71.5 435.605 82.7797 408.373 102.858 388.295C122.936 368.217 150.168 356.938 178.562 356.938H321.312V571.062H178.562ZM321.312 767.344C321.312 792.048 313.987 816.197 300.262 836.738C286.537 857.279 267.029 873.288 244.206 882.742C221.382 892.196 196.268 894.669 172.038 889.85C147.809 885.03 125.553 873.134 108.084 855.666C90.6157 838.197 78.7196 815.941 73.9 791.712C69.0805 767.482 71.554 742.368 81.0079 719.544C90.4618 696.721 106.471 677.213 127.012 663.488C147.553 649.763 171.702 642.438 196.406 642.438H321.312V767.344ZM499.75 571.062C478.575 571.062 457.876 564.783 440.269 553.019C422.663 541.255 408.94 524.534 400.837 504.971C392.734 485.408 390.614 463.881 394.745 443.113C398.876 422.345 409.072 403.268 424.045 388.295C439.018 373.322 458.095 363.126 478.863 358.995C499.631 354.864 521.158 356.984 540.721 365.087C560.284 373.19 577.005 386.913 588.769 404.519C600.533 422.126 606.812 442.825 606.812 464C606.812 492.395 595.533 519.627 575.455 539.705C555.377 559.783 528.145 571.062 499.75 571.062Z" fill="#1B67B3" fill-opacity="0.1"/>
</svg>
