<svg width="537" height="122" viewBox="0 0 537 122" fill="none" xmlns="http://www.w3.org/2000/svg">
<g clip-path="url(#clip0_10_106)">
<path d="M30.2314 93.1535H24.8578C24.2562 93.1535 23.7776 93.0168 23.4085 92.7298C23.0393 92.4429 22.7521 92.0876 22.5607 91.6503L20.7969 86.444H9.43449L7.67065 91.6503C7.52024 92.0329 7.24678 92.3746 6.86393 92.6889C6.46741 93.0031 5.98885 93.1535 5.41457 93.1535H0L11.5675 63.282H18.6639L30.2314 93.1535ZM19.2108 81.7296L16.4488 73.558C16.2437 73.0388 16.025 72.4238 15.7925 71.7269C15.5601 71.03 15.3276 70.2648 15.0952 69.4449C14.8901 70.2785 14.6713 71.0574 14.4389 71.7679C14.2064 72.4785 13.9876 73.0934 13.7826 73.6127L11.0342 81.757H19.2108V81.7296Z" fill="#16599B"/>
<path d="M53.7631 93.1535H47.4871C46.3249 93.1535 45.4908 92.7162 44.9849 91.8416L40.0215 83.1644C39.7891 82.7955 39.5293 82.5222 39.2422 82.3582C38.955 82.1942 38.5448 82.0986 38.0116 82.0986H36.2477V93.1398H29.3154V63.2684H39.0371C41.1974 63.2684 43.0433 63.487 44.561 63.938C46.0787 64.3889 47.323 65.0038 48.2938 65.7964C49.2646 66.5889 49.9619 67.5181 50.3995 68.5977C50.837 69.6772 51.0558 70.8524 51.0558 72.1232C51.0558 73.0934 50.919 74.009 50.6592 74.8699C50.3995 75.7307 50.0166 76.5233 49.5107 77.2612C49.0048 77.9991 48.3758 78.6414 47.6375 79.2153C46.8855 79.7892 46.0377 80.2675 45.0669 80.6364C45.5181 80.8687 45.942 81.1557 46.3385 81.511C46.735 81.8663 47.0905 82.2762 47.405 82.7545L53.7631 93.1535ZM39.0371 77.3295C39.9805 77.3295 40.7872 77.2065 41.4435 76.9742C42.1135 76.7419 42.6468 76.4003 43.0706 75.9767C43.4945 75.5531 43.7953 75.0612 43.9867 74.4872C44.1782 73.927 44.2739 73.3121 44.2739 72.6561C44.2739 71.3443 43.85 70.3194 42.9886 69.5815C42.1272 68.8436 40.8146 68.4747 39.0234 68.4747H36.2341V77.3295H39.0234H39.0371Z" fill="#16599B"/>
<path d="M78.6346 93.1535H71.7023C71.251 93.1535 70.8819 93.0441 70.6084 92.8255C70.3213 92.6069 70.1025 92.3472 69.9384 92.0466L63.9496 81.593C63.8402 81.8936 63.7171 82.1532 63.5804 82.3719L58.0017 92.0466C57.8103 92.3199 57.5779 92.5795 57.3181 92.8118C57.0583 93.0441 56.7301 93.1535 56.3199 93.1535H49.8389L59.4511 77.7805L50.208 63.282H57.1403C57.5916 63.282 57.9197 63.3367 58.1385 63.4597C58.3436 63.569 58.535 63.774 58.6991 64.0473L64.6469 74.1046C64.7153 73.927 64.7973 73.763 64.8794 73.5854C64.9614 73.4214 65.0708 73.2574 65.1802 73.0661L70.3896 64.1293C70.5811 63.8286 70.7862 63.61 70.9913 63.4733C71.21 63.3367 71.4698 63.2684 71.7843 63.2684H78.4295L69.0633 77.4798L78.6482 93.1398L78.6346 93.1535Z" fill="#16599B"/>
<path d="M107.034 8.62254H97.9138V84.5309H123.291V72.4512H131.345V93.1535H79.6875V84.5309H88.8075V8.62254H79.6875V0H107.034V8.62254Z" fill="#16599B"/>
<path d="M132.315 63.856C132.315 54.2359 134.667 46.5972 139.384 40.9263C144.088 35.2554 150.036 32.4268 157.242 32.4268C164.447 32.4268 170.176 35.0641 174.483 40.3251C178.791 45.586 180.937 52.9787 180.937 62.4895C180.937 72.0002 178.654 80.0078 174.101 85.8701C169.547 91.746 163.572 94.6839 156.175 94.6839C148.778 94.6839 143.09 91.869 138.783 86.2527C134.476 80.6364 132.329 73.1754 132.329 63.856H132.315ZM141.887 62.4895C141.887 70.4834 143.172 76.5916 145.756 80.7867C148.34 84.9819 152.059 87.0863 156.927 87.0863C161.48 87.0863 165.035 85.1322 167.565 81.2377C170.094 77.3432 171.366 71.399 171.366 63.3914C171.366 47.7997 166.403 40.0108 156.476 40.0108C151.718 40.0108 148.094 41.8145 145.619 45.3947C143.131 48.9886 141.9 54.6868 141.9 62.4758L141.887 62.4895Z" fill="#16599B"/>
<path d="M184.93 53.8259C184.93 47.5538 186.899 42.4158 190.85 38.412C194.802 34.4082 199.861 32.4131 206.041 32.4131C208.27 32.4131 210.294 32.6727 212.112 33.1783C213.726 33.6839 215.558 33.9436 217.582 33.9436H232.02V41.2269H223.365V41.3772C225.293 44.7115 226.25 48.4147 226.25 52.4595C226.25 59.1416 224.295 64.5529 220.398 68.707C216.501 72.8611 211.456 74.9245 205.276 74.9245C202.445 74.9245 199.902 74.5282 197.673 73.7083C195.745 75.9357 194.788 78.0674 194.788 80.0898C194.788 81.306 195.199 82.2626 196.005 82.9731C196.812 83.6837 198.084 84.039 199.806 84.039H210.444C217.13 84.039 222.271 85.4055 225.867 88.1384C229.463 90.8714 231.255 94.9162 231.255 100.287C231.255 106.859 228.616 112.134 223.352 116.083C218.087 120.032 211.456 122 203.443 122C196.962 122 191.739 120.483 187.801 117.45C183.85 114.416 181.881 110.522 181.881 105.752C181.881 100.287 184.615 95.2715 190.085 90.7211C187.651 88.6987 186.434 86.0614 186.434 82.8228C186.434 78.778 188.608 74.9245 192.97 71.2897C187.596 67.1355 184.916 61.328 184.916 53.8259H184.93ZM195.718 93.1535C192.573 96.1871 191.015 99.7263 191.015 103.785C191.015 107.228 192.122 109.934 194.351 111.902C196.58 113.869 200.025 114.867 204.688 114.867C210.157 114.867 214.437 113.733 217.527 111.451C220.617 109.169 222.162 106.217 222.162 102.569C222.162 99.4256 221.123 97.0753 219.045 95.5038C216.966 93.9324 214.109 93.1535 210.458 93.1535H195.718ZM194.351 53.0744C194.351 57.6248 195.308 61.205 197.236 63.774C199.164 66.3566 202.049 67.6411 205.891 67.6411C209.542 67.6411 212.276 66.4796 214.095 64.1429C215.913 61.8199 216.829 58.2807 216.829 53.5117C216.829 48.7426 215.886 45.4357 214.013 43.263C212.14 41.0903 209.282 39.9971 205.426 39.9971C201.775 39.9971 199.013 41.063 197.14 43.181C195.267 45.3127 194.323 48.5923 194.323 53.047L194.351 53.0744Z" fill="#16599B"/>
<path d="M230.721 85.5694H238.323V41.5275H220.985L230.721 33.9299H247.429V85.5558H255.032V93.1534H230.721V85.5558V85.5694ZM235.739 17.8463C235.739 15.7146 236.327 14.0748 237.489 12.9133C238.651 11.7518 240.251 11.1642 242.274 11.1642C244.202 11.1642 245.775 11.7518 246.992 12.9133C248.209 14.0748 248.81 15.6189 248.81 17.5457C248.81 19.5681 248.209 21.1669 246.992 22.3284C245.775 23.4899 244.148 24.0775 242.124 24.0775C240.1 24.0775 238.651 23.4899 237.489 22.3284C236.327 21.1669 235.739 19.6774 235.739 17.8463Z" fill="#16599B"/>
<path d="M295.203 90.8851C290.336 93.4131 285.03 94.6839 279.247 94.6839C271.043 94.6839 264.562 92.0466 259.803 86.7856C255.045 81.5246 252.666 73.9816 252.666 64.1566C252.666 54.3315 255.168 46.4742 260.186 40.8443C265.204 35.228 271.713 32.4131 279.712 32.4131C285.277 32.4131 290.445 33.5746 295.203 35.9113V50.642H287.15V41.3772C284.921 40.4617 282.186 40.0108 278.946 40.0108C273.271 40.0108 269.074 41.8145 266.339 45.3947C263.605 48.9886 262.237 54.6868 262.237 62.4758C262.237 70.7704 263.7 76.9059 266.64 80.8414C269.58 84.7906 273.832 86.7583 279.397 86.7583C284.962 86.7583 290.13 85.3918 295.203 82.6588V90.8577V90.8851Z" fill="#16599B"/>
<path d="M363.775 93.9187H355.12L343.115 58.8409H342.814L330.358 93.9187H321.702L304.843 41.5412H298.007V33.9435H320.8V41.5412H314.114L326.57 82.2352H326.871L339.327 48.2233L337.044 41.5412H329.906V33.9435H354.217V41.5412H346.013L359.987 82.2352H360.288L373.196 41.5412H366.359V33.9435H389.152V41.5412H381.55L363.775 93.9187Z" fill="#16599B"/>
<path d="M392.242 38.3436C399.229 34.3945 406.367 32.4268 413.668 32.4268C419.944 32.4268 424.785 33.8752 428.176 36.7585C431.567 39.6418 433.262 44.2195 433.262 50.5054V85.5831H440.864V93.1808H425.058L424.607 86.3484L424.306 86.198C419.438 91.869 413.463 94.6976 406.381 94.6976C401.116 94.6976 396.932 93.1535 393.842 90.0652C390.752 86.9769 389.207 83.0551 389.207 78.2997C389.207 71.9182 391.969 67.1629 397.493 64.0199C403.017 60.8907 411.043 59.3192 421.571 59.3192H424.156V50.3551C424.156 46.6109 423.267 43.9599 421.503 42.3885C419.726 40.817 416.772 40.0381 412.615 40.0381C407.652 40.0381 403.496 40.8443 400.159 42.4704V50.6694H392.256V38.371L392.242 38.3436ZM420.505 65.8237C413.518 65.8237 408.144 66.7119 404.398 68.4747C400.651 70.2511 398.778 73.3531 398.778 77.8078C398.778 81.0464 399.694 83.3967 401.513 84.8726C403.331 86.3347 405.67 87.0726 408.5 87.0726C414.571 87.0726 419.794 84.5993 424.142 79.6389V65.8237H420.491H420.505Z" fill="#16599B"/>
<path d="M468.114 93.9187H459.459L441.835 41.5412H434.998V33.9435H457.791V41.5412H451.105L464.327 82.2352H464.628L478.301 41.5412H471.464V33.9435H494.258V41.5412H486.655L468.128 93.9187H468.114Z" fill="#16599B"/>
<path d="M535.483 81.7706V89.9695C530.41 93.1125 524.489 94.6839 517.707 94.6839C509.709 94.6839 503.446 92.0056 498.948 86.6353C494.436 81.2787 492.193 73.7767 492.193 64.1703C492.193 54.5639 494.572 46.4879 499.331 40.858C504.089 35.2417 510.064 32.4268 517.256 32.4268C523.122 32.4268 527.894 34.7498 531.531 39.4095C535.182 44.0692 537 50.6967 537 59.3056V64.0063H501.601C501.806 71.0983 503.2 76.6053 505.784 80.5544C508.369 84.5036 512.498 86.5806 518.172 86.7856C524.448 86.7856 530.218 85.1185 535.496 81.7706H535.483ZM527.88 56.7229C527.88 50.9563 526.814 46.7339 524.694 44.0419C522.561 41.3636 519.581 40.0244 515.725 40.0244C511.869 40.0244 508.834 41.4182 506.304 44.2059C503.775 46.9935 502.257 51.1613 501.751 56.7366H527.88V56.7229Z" fill="#16599B"/>
<path d="M37.916 55.1378C49.0317 55.1378 58.0429 46.1321 58.0429 35.0231C58.0429 23.914 49.0317 14.9084 37.916 14.9084C26.8002 14.9084 17.7891 23.914 17.7891 35.0231C17.7891 46.1321 26.8002 55.1378 37.916 55.1378Z" fill="#0C131C"/>
</g>
<defs>
<clipPath id="clip0_10_106">
<rect width="537" height="122" fill="white"/>
</clipPath>
</defs>
</svg>
