<svg width="703" height="703" viewBox="0 0 703 703" fill="none" xmlns="http://www.w3.org/2000/svg">
<path d="M600.83 351.5C691.053 224.822 737.061 93.8982 673.081 29.9186C609.102 -34.0609 478.178 11.9473 351.5 102.17C224.822 11.9473 93.8982 -34.0609 29.9187 29.9186C-34.0608 93.8982 11.9473 224.822 102.17 351.5C11.9473 478.178 -34.0608 609.102 29.9187 673.081C50.5254 693.688 78.0497 702.875 110.113 702.875C177.752 702.875 265.596 661.991 351.683 600.83C437.404 661.991 525.248 702.875 593.07 702.875C625.133 702.875 652.694 693.651 673.264 673.081C737.061 609.102 691.053 478.178 600.83 351.5ZM631.685 71.315C659.649 99.2786 640.762 189.904 563.899 302.93C539.582 272.828 513.694 244.031 486.34 216.66C458.966 189.344 430.169 163.492 400.07 139.211C513.096 62.3476 603.721 43.3148 631.685 71.315ZM528.249 351.5C502.349 384.264 474.532 415.467 444.944 444.944C415.467 474.532 384.264 502.349 351.5 528.249C318.736 502.349 287.533 474.532 258.056 444.944C228.468 415.467 200.651 384.264 174.751 351.5C226.714 286.018 286.019 226.714 351.5 174.751C384.264 200.651 415.467 228.468 444.944 258.056C474.532 287.533 502.349 318.736 528.249 351.5ZM71.3151 71.315C79.3674 63.2261 92.6538 59.0535 110.186 59.0535C153.449 59.0535 222.516 84.3085 302.893 139.211C272.823 163.512 244.039 189.363 216.66 216.66C189.344 244.034 163.492 272.831 139.211 302.93C62.3477 189.904 43.3515 99.2786 71.3151 71.315ZM71.3151 631.685C43.3515 603.721 62.3477 513.096 139.211 400.07C163.527 430.172 189.416 458.969 216.77 486.34C244.126 513.634 272.885 539.486 302.93 563.789C189.904 640.652 99.2787 659.685 71.3151 631.685ZM631.685 631.685C603.721 659.685 513.096 640.762 400.07 563.899C430.155 539.563 458.951 513.675 486.34 486.34C513.656 458.966 539.508 430.169 563.789 400.07C640.652 513.096 659.649 603.721 631.685 631.685ZM395.422 351.5C395.422 360.187 392.846 368.679 388.02 375.902C383.194 383.125 376.334 388.754 368.308 392.078C360.283 395.403 351.451 396.273 342.931 394.578C334.411 392.883 326.585 388.7 320.443 382.557C314.3 376.415 310.117 368.589 308.422 360.069C306.727 351.549 307.597 342.717 310.922 334.692C314.246 326.666 319.875 319.806 327.098 314.98C334.321 310.154 342.813 307.578 351.5 307.578C363.149 307.578 374.321 312.206 382.557 320.442C390.794 328.679 395.422 339.851 395.422 351.5Z" fill="#1B67B3" fill-opacity="0.1"/>
</svg>
